<svg xmlns="http://www.w3.org/2000/svg" width="173.808" height="73" viewBox="0 0 173.808 73"><defs><style>.a{font-size:63px;font-family:ArialRoundedMTBold, Arial Rounded MT Bold;}</style></defs><text class="a" transform="translate(0 60)"><tspan x="0" y="0">Stud</tspan></text><path d="M5,0A5,5,0,1,1,0,5,5,5,0,0,1,5,0Z" transform="translate(145 17.426)"/><path d="M3.8,34.228a4,4,0,0,1,7.956,0L14.768,56.4a4.142,4.142,0,0,1-3.978,4.791H4.777A4.142,4.142,0,0,1,.8,56.4Z" transform="translate(142 -0.19)"/><path d="M3.8,34.228a4,4,0,0,1,7.956,0L14.768,56.4a4.142,4.142,0,0,1-3.978,4.791H4.777A4.142,4.142,0,0,1,.8,56.4Z" transform="translate(174.566 91.616) rotate(180)"/><path d="M5,0A5,5,0,1,1,0,5,5,5,0,0,1,5,0Z" transform="translate(162 17.426)"/></svg>